<svg width="25" height="24" viewBox="0 0 25 24" fill="none" xmlns="http://www.w3.org/2000/svg">
<path fill-rule="evenodd" clip-rule="evenodd" d="M8.37977 2.02243C8.38071 0.906613 9.36779 0 10.5873 0H13.6138C14.8331 0 15.8214 0.906358 15.8204 2.02384L15.8198 2.02384C15.8199 3.01709 16.1741 3.57338 16.5896 3.89824C17.0162 4.23173 17.6292 4.41513 18.3344 4.43329L20.4212 3.95517C20.9544 3.83302 21.5137 4.03121 21.8186 4.45026L23.9821 7.42441C24.3222 7.89196 24.268 8.53749 23.7946 8.94524C23.55 9.15582 23.2895 9.35929 23.0496 9.54668L23.0495 9.54672L23.0495 9.54677L23.0387 9.55518C22.7888 9.75034 22.5601 9.92928 22.3499 10.1102C21.9169 10.483 21.6656 10.7806 21.5592 11.0498C21.4749 11.263 21.4496 11.5339 21.6956 11.9641C21.9649 12.435 22.5501 13.0719 23.696 13.903C24.1757 14.2509 24.3606 14.8974 24.0249 15.4357L21.8236 18.9663C21.5922 19.3374 21.1615 19.5667 20.6946 19.5667H18.4508L18.4267 19.5665L18.4124 19.5661C17.2064 19.5745 16.627 19.9667 16.3116 20.3657C15.9522 20.8204 15.8206 21.4344 15.8204 21.9766C15.8212 23.094 14.833 24.0002 13.6138 24.0002H10.5873C9.36779 24.0002 8.38071 23.0936 8.37977 21.9778H8.38043V21.9776C8.38043 20.819 8.14399 20.303 7.86037 20.0431C7.57675 19.7832 7.01372 19.5665 5.74949 19.5665C5.7359 19.5665 5.72238 19.5662 5.70892 19.5657H3.50557C3.03867 19.5657 2.60801 19.3364 2.37662 18.9653L0.175259 15.4348C-0.160427 14.8964 0.0244961 14.25 0.504211 13.902C1.65008 13.0709 2.23528 12.434 2.50455 11.9631C2.75054 11.5329 2.72525 11.262 2.64098 11.0488C2.53459 10.7796 2.28331 10.4821 1.85028 10.1092C1.64009 9.92829 1.41136 9.74936 1.16147 9.55419L1.15072 9.54579C0.910757 9.35838 0.650187 9.15487 0.405617 8.94425C-0.0678593 8.53651 -0.12205 7.89097 0.218066 7.42342L2.38159 4.44927C2.68642 4.03022 3.24579 3.83203 3.77893 3.95418L5.87345 4.43406C7.0509 4.4203 7.58619 4.20944 7.86037 3.95817C8.14399 3.69824 8.38043 3.18225 8.38043 2.02365L8.38043 2.02243L8.37977 2.02243ZM10.5873 22.1711C10.4766 22.1711 10.3843 22.0919 10.3762 21.9906L10.3763 21.9776C10.3763 20.6872 10.1344 19.5404 9.27168 18.7497C8.41754 17.9669 7.1825 17.7418 5.79171 17.7374C5.77768 17.7369 5.76357 17.7366 5.7494 17.7366H3.90927L2.19934 14.9942C3.19115 14.2249 3.87455 13.5079 4.27242 12.8121C4.75194 11.9734 4.81134 11.1692 4.51756 10.4259C4.24589 9.7385 3.70695 9.19805 3.21682 8.77609C2.96774 8.56165 2.70424 8.35585 2.4628 8.16729L2.45607 8.16203C2.37362 8.09764 2.29372 8.03521 2.21625 7.97408L3.77038 5.83765L5.45852 6.22443C5.55058 6.2501 5.64827 6.26392 5.74949 6.26392C7.1575 6.26392 8.40891 6.04224 9.27168 5.25156C10.1344 4.46088 10.3763 3.31402 10.3763 2.02365L10.3762 2.0098C10.3842 1.90842 10.4766 1.82914 10.5873 1.82914H13.6138C13.7255 1.82914 13.8168 1.90874 13.8241 2.0094L13.8239 2.02365C13.8239 3.4625 14.3646 4.56298 15.2943 5.28984C16.1958 5.99456 17.3459 6.25674 18.4063 6.26377C18.5186 6.26451 18.627 6.25169 18.7289 6.22833L20.4298 5.83864L21.9839 7.97507C21.9064 8.0362 21.8265 8.09863 21.7441 8.16302L21.7374 8.16826L21.7374 8.16828L21.7372 8.16839C21.4958 8.35693 21.2324 8.56268 20.9834 8.77708C20.4932 9.19904 19.9543 9.73949 19.6826 10.4269C19.3888 11.1702 19.4482 11.9744 19.9277 12.8131C20.3256 13.5089 21.009 14.2259 22.0008 14.9952L20.2909 17.7376H18.4523V17.7368C16.6614 17.7368 15.4353 18.3565 14.6953 19.2927C13.996 20.1773 13.8247 21.2259 13.8245 21.9769C13.8246 22.0836 13.7302 22.1711 13.6138 22.1711H10.5873ZM14.7909 11.9108C14.7909 13.4111 13.5747 14.6273 12.0744 14.6273C10.5742 14.6273 9.35796 13.4111 9.35796 11.9108C9.35796 10.4106 10.5742 9.19439 12.0744 9.19439C13.5747 9.19439 14.7909 10.4106 14.7909 11.9108ZM16.8282 11.9108C16.8282 14.5363 14.6999 16.6646 12.0744 16.6646C9.44896 16.6646 7.32062 14.5363 7.32062 11.9108C7.32062 9.28539 9.44896 7.15705 12.0744 7.15705C14.6999 7.15705 16.8282 9.28539 16.8282 11.9108Z" fill="#393938"/>
</svg>
