<svg width="24" height="24" viewBox="0 0 24 24" fill="none" xmlns="http://www.w3.org/2000/svg">
<path fill-rule="evenodd" clip-rule="evenodd" d="M20.9444 6.16616C21.1592 5.95137 21.1592 5.60313 20.9444 5.38834L18.611 3.05489C18.3962 2.8401 18.048 2.8401 17.8332 3.05489L11.9997 8.88839L6.1666 3.05532C5.95181 2.84053 5.60357 2.84053 5.38878 3.05532L3.05533 5.38877C2.84054 5.60356 2.84054 5.9518 3.05533 6.16659L8.8884 11.9997L3.05465 17.8334C2.83986 18.0482 2.83986 18.3964 3.05465 18.6112L5.3881 20.9447C5.60289 21.1595 5.95113 21.1595 6.16591 20.9447L11.9997 15.1109L17.8339 20.9451C18.0487 21.1599 18.3969 21.1599 18.6117 20.9451L20.9451 18.6117C21.1599 18.3969 21.1599 18.0486 20.9451 17.8339L15.1109 11.9997L20.9444 6.16616Z" fill="#393938"/>
</svg>
