<svg width="24" height="24" viewBox="0 0 24 24" fill="none" xmlns="http://www.w3.org/2000/svg">
<path fill-rule="evenodd" clip-rule="evenodd" d="M13.2524 6.36678L13.2524 6.36682C13.2521 6.36705 13.2518 6.36726 13.2516 6.36744C13.2514 6.36761 13.2517 6.36737 13.2515 6.3675C13.2513 6.36769 13.251 6.36792 13.2509 6.368C13.2508 6.36807 13.2504 6.3684 13.2504 6.3684L12 7.37265L10.7497 6.3684C10.7497 6.3684 10.7493 6.36807 10.7492 6.368C10.7491 6.36792 10.7488 6.36769 10.7485 6.3675C10.7484 6.36737 10.7483 6.36734 10.7481 6.36717C10.7479 6.36699 10.748 6.36705 10.7477 6.36682L10.7477 6.36678L10.732 6.35448C10.7166 6.34232 10.6911 6.3225 10.6567 6.29614C10.5877 6.24332 10.4833 6.16475 10.3506 6.06906C10.0832 5.87621 9.7114 5.6213 9.29101 5.3695C8.86569 5.11476 8.4232 4.88286 8.01147 4.71938C7.57815 4.54732 7.29967 4.5 7.16809 4.5C5.63935 4.5 4.59868 4.79051 3.98332 5.28281C3.48036 5.68518 2.92107 6.4988 3.00897 8.4813C3.03533 9.07569 3.44531 10.0842 4.43925 11.459C5.38217 12.7633 6.65625 14.136 7.97544 15.4103C9.28624 16.6765 10.5973 17.8032 11.5843 18.6158C11.7184 18.7261 11.8462 18.8305 11.967 18.9285C12.0971 18.8179 12.2355 18.6995 12.3811 18.574C13.3725 17.7192 14.69 16.5409 16.008 15.2372C17.3342 13.9254 18.6186 12.5279 19.5705 11.2329C20.5925 9.84247 20.9698 8.91258 20.9916 8.47136C21.0731 6.81798 20.561 5.93981 19.9657 5.43051C19.3001 4.86104 18.2289 4.5 16.832 4.5C16.7004 4.5 16.4219 4.54732 15.9886 4.71938C15.5769 4.88286 15.1344 5.11476 14.7091 5.3695C14.2887 5.6213 13.9168 5.87621 13.6494 6.06906C13.5168 6.16475 13.4123 6.24332 13.3434 6.29614C13.3089 6.3225 13.2835 6.34232 13.268 6.35448L13.2524 6.36678ZM12 4.80745C12 4.80745 14.873 2.5 16.832 2.5C20.2325 2.5 23.2028 4.23877 22.9891 8.56988C22.7755 12.901 12 21.5 12 21.5C12 21.5 1.22539 13.4068 1.01094 8.56988C0.796478 3.73294 3.76759 2.5 7.16809 2.5C9.12706 2.5 12 4.80745 12 4.80745Z" fill="#393938"/>
</svg>
