<svg width="24" height="24" viewBox="0 0 24 24" fill="none" xmlns="http://www.w3.org/2000/svg">
<path fill-rule="evenodd" clip-rule="evenodd" d="M14.2 1.55C14.2 1.24624 13.9538 1 13.65 1H10.35C10.0462 1 9.8 1.24624 9.8 1.55V9.8H1.55C1.24624 9.8 1 10.0462 1 10.35V13.65C1 13.9538 1.24624 14.2 1.55 14.2H9.8V22.45C9.8 22.7538 10.0462 23 10.35 23H13.65C13.9538 23 14.2 22.7538 14.2 22.45V14.2H22.45C22.7538 14.2 23 13.9538 23 13.65V10.35C23 10.0462 22.7538 9.8 22.45 9.8H14.2V1.55Z" fill="#393938"/>
</svg>
