<svg width="24" height="24" viewBox="0 0 24 24" fill="none" xmlns="http://www.w3.org/2000/svg">
<path fill-rule="evenodd" clip-rule="evenodd" d="M18.17 10.8353C18.17 14.888 14.8856 18.1725 10.835 18.1725C6.78443 18.1725 3.5 14.888 3.5 10.8353C3.5 6.78269 6.78443 3.49817 10.835 3.49817C14.8856 3.49817 18.17 6.78269 18.17 10.8353ZM15.8056 18.7402C14.3664 19.6476 12.662 20.1725 10.835 20.1725C5.67942 20.1725 1.5 15.9921 1.5 10.8353C1.5 5.67857 5.67942 1.49817 10.835 1.49817C15.9906 1.49817 20.17 5.67857 20.17 10.8353C20.17 12.6621 19.6455 14.3662 18.739 15.8055L22.3535 19.4208C22.5488 19.6161 22.5488 19.9327 22.3535 20.128L20.1268 22.3552C19.9316 22.5505 19.6151 22.5505 19.4198 22.3552L15.8056 18.7402Z" fill="#393938"/>
</svg>
